# xmcd CD database file
#
# Track frame offsets:
#	150
#	11410
#	25520
#	37595
#	48275
#	61025
#	74307
#	87270
#	98452
#	110387
#	121192
#	131922
#	145502
#	158092
#	174090
#	189260
#	205725
#	218570
#	229942
#	243152
#
# Disc length: 3394 seconds
#
# Revision: 1
# Processed by: cddbd v1.4PL0 Copyright (c) Steve Scherf et al.
# Submitted via: CDex 1.50Beta7
#
DISCID=e80d4014
DTITLE=Jimmy Reed - Jimmy Reed at Carnegie Hall
DYEAR=1986
DGENRE=Blues
TTITLE0=Baby, What You Want Me to Do¿
TTITLE1=You Don't Have to Go
TTITLE2=Hush-Hush
TTITLE3=Found Love
TTITLE4=Honest I Do
TTITLE5=You Got Me Dizzy
TTITLE6=Big Boss Man
TTITLE7=Take Out Some Insurance
TTITLE8=Boogie in the Dark
TTITLE9=Going to New York
TTITLE10=Ain't That Lovin' You, Baby¿
TTITLE11=The Sun is Shining
TTITLE12=Big Lights, Big City
TTITLE13=I'm Mr. Luck
TTITLE14=Baby, What's Wrong¿
TTITLE15=Found Joy
TTITLE16=Kind of Lonesome
TTITLE17=Aw Shucks, Hush Your Mouth
TTITLE18=Tell Me You Love Me
TTITLE19=Hold Me Close
EXTD=YEAR: 1986
EXTT0=
EXTT1=
EXTT2=
EXTT3=
EXTT4=
EXTT5=
EXTT6=
EXTT7=
EXTT8=
EXTT9=
EXTT10=
EXTT11=
EXTT12=
EXTT13=
EXTT14=
EXTT15=
EXTT16=
EXTT17=
EXTT18=
EXTT19=
PLAYORDER=
